<svg width="420" height="474" viewBox="0 0 420 474" fill="none" xmlns="http://www.w3.org/2000/svg">
<path d="M336.178 1.59488C292.907 -5.80051 197.579 11.058 180.706 83.1664C169.488 131.109 169.818 170.22 141.507 170.954C124.662 171.391 115.878 136.537 92.6207 133.67C62.2677 129.928 41.2032 155.182 28.0568 178.051C-0.864335 228.363 8.1793 313.918 46.2109 355.64C138.317 456.684 247.696 351.017 294.462 268.405C324.455 215.42 392.125 172.592 406.219 112.863C418.016 62.8591 391.835 11.1069 336.178 1.59488V1.59488Z" fill="url(#paint0_linear)"/>
<path d="M342.261 329.815H182.857C175.596 329.815 169.71 323.929 169.71 316.668V50.509C169.71 43.248 175.596 37.362 182.857 37.362H342.261C349.522 37.362 355.408 43.248 355.408 50.509V316.668C355.408 323.928 349.522 329.815 342.261 329.815Z" fill="#F4F1F1"/>
<path d="M355.408 82.365V50.508C355.408 43.247 349.522 37.361 342.261 37.361H182.857C175.596 37.361 169.71 43.247 169.71 50.508V82.364H355.408V82.365Z" fill="#FF7EB8"/>
<path d="M204.08 64.296C201.66 64.296 199.698 62.334 199.698 59.914V59.813C199.698 57.392 201.66 55.431 204.08 55.431C206.5 55.431 208.462 57.393 208.462 59.813V59.914C208.463 62.334 206.5 64.296 204.08 64.296Z" fill="white"/>
<path d="M221.709 64.296C219.289 64.296 217.327 62.334 217.327 59.914V59.813C217.327 57.392 219.289 55.431 221.709 55.431C224.129 55.431 226.091 57.393 226.091 59.813V59.914C226.091 62.334 224.129 64.296 221.709 64.296Z" fill="white"/>
<path d="M239.337 64.296C236.917 64.296 234.955 62.334 234.955 59.914V59.813C234.955 57.392 236.917 55.431 239.337 55.431C241.757 55.431 243.719 57.393 243.719 59.813V59.914C243.72 62.334 241.758 64.296 239.337 64.296Z" fill="white"/>
<path d="M321.038 64.245H297.794C295.373 64.245 293.412 62.283 293.412 59.863C293.412 57.443 295.374 55.481 297.794 55.481H321.038C323.458 55.481 325.42 57.443 325.42 59.863C325.42 62.283 323.458 64.245 321.038 64.245Z" fill="white"/>
<path d="M282.692 64.245H276.978C274.557 64.245 272.596 62.283 272.596 59.863C272.596 57.443 274.558 55.481 276.978 55.481H282.692C285.113 55.481 287.074 57.443 287.074 59.863C287.074 62.283 285.113 64.245 282.692 64.245Z" fill="white"/>
<path d="M322.166 144.289H202.51C200.089 144.289 198.128 142.327 198.128 139.907C198.128 137.487 200.09 135.525 202.51 135.525H322.165C324.586 135.525 326.547 137.487 326.547 139.907C326.548 142.327 324.586 144.289 322.166 144.289V144.289Z" fill="#D2DEFF"/>
<path d="M326.991 114.927C326.991 117.347 325.029 119.309 322.609 119.309C320.189 119.309 318.227 117.347 318.227 114.927C318.227 112.507 320.189 110.545 322.609 110.545C325.029 110.545 326.991 112.507 326.991 114.927Z" fill="#FF7EB8"/>
<path d="M322.166 160.504H202.51C200.089 160.504 198.128 158.542 198.128 156.122C198.128 153.702 200.09 151.74 202.51 151.74H322.165C324.586 151.74 326.547 153.702 326.547 156.122C326.548 158.542 324.586 160.504 322.166 160.504V160.504Z" fill="#D2DEFF"/>
<path d="M322.166 176.719H202.51C200.089 176.719 198.128 174.757 198.128 172.337C198.128 169.917 200.09 167.955 202.51 167.955H322.165C324.586 167.955 326.547 169.917 326.547 172.337C326.547 174.757 324.586 176.719 322.166 176.719V176.719Z" fill="#D2DEFF"/>
<path d="M322.166 192.933H202.51C200.089 192.933 198.128 190.971 198.128 188.551C198.128 186.131 200.09 184.169 202.51 184.169H322.165C324.586 184.169 326.547 186.131 326.547 188.551C326.548 190.971 324.586 192.933 322.166 192.933V192.933Z" fill="#D2DEFF"/>
<path d="M322.166 209.148H202.51C200.089 209.148 198.128 207.186 198.128 204.766C198.128 202.346 200.09 200.384 202.51 200.384H322.165C324.586 200.384 326.547 202.346 326.547 204.766C326.548 207.186 324.586 209.148 322.166 209.148V209.148Z" fill="#D2DEFF"/>
<path d="M63.302 355.719V115.793C63.302 110.952 67.226 107.028 72.067 107.028H255.022C259.863 107.028 263.787 110.952 263.787 115.793V355.719C263.787 360.56 259.863 364.484 255.022 364.484H72.066C67.226 364.484 63.302 360.56 63.302 355.719V355.719Z" fill="#D2DEFF"/>
<path d="M241.875 133.322V205.498L229.82 272.453H85.213V133.322C85.213 130.902 87.175 128.94 89.595 128.94H237.491C239.912 128.94 241.875 130.902 241.875 133.322V133.322Z" fill="#4369FD"/>
<path d="M184.054 215.532C188.371 197.505 177.256 179.392 159.229 175.075C141.202 170.758 123.088 181.872 118.771 199.9C114.454 217.927 125.569 236.04 143.596 240.357C161.623 244.674 179.737 233.56 184.054 215.532Z" fill="#FF7EB8"/>
<path d="M241.875 272.453V205.498C230.178 201.428 217.597 199.212 204.511 199.212C155.985 199.212 114.577 229.643 98.286 272.453H241.875Z" fill="#01ECA5"/>
<path d="M203.527 272.454H85.213V227.166C97.502 219.143 112.171 214.487 127.93 214.487C164.129 214.487 194.597 239.065 203.527 272.454Z" fill="#97FFD2"/>
<path d="M237.492 292.309H89.596C87.176 292.309 85.214 290.347 85.214 287.927V259.588H241.875V287.927C241.875 290.347 239.912 292.309 237.492 292.309Z" fill="white"/>
<path d="M71.5 361.454V346.799C71.5 344.038 73.739 341.799 76.5 341.799H91.155C95.609 341.799 97.84 347.185 94.691 350.335L80.036 364.99C76.886 368.139 71.5 365.909 71.5 361.454Z" fill="#FF7EB8"/>
<path d="M339.878 348.329C342.639 348.329 344.878 346.09 344.878 343.329C344.878 340.568 342.639 338.329 339.878 338.329C337.117 338.329 334.878 340.568 334.878 343.329C334.878 346.09 337.117 348.329 339.878 348.329Z" fill="#FFA8CF"/>
<path d="M98.285 75.863C95.524 75.863 93.285 73.625 93.285 70.863C93.285 67.554 90.594 64.863 87.285 64.863C84.524 64.863 82.285 62.625 82.285 59.863C82.285 57.101 84.524 54.863 87.285 54.863C90.594 54.863 93.285 52.172 93.285 48.863C93.285 46.101 95.524 43.863 98.285 43.863C101.046 43.863 103.285 46.101 103.285 48.863C103.285 52.172 105.976 54.863 109.285 54.863C112.046 54.863 114.285 57.101 114.285 59.863C114.285 62.625 112.046 64.863 109.285 64.863C105.976 64.863 103.285 67.554 103.285 70.863C103.285 73.625 101.046 75.863 98.285 75.863Z" fill="#01ECA5"/>
<path d="M16.5 183.954C13.739 183.954 11.5 181.716 11.5 178.954C11.5 175.645 8.809 172.954 5.5 172.954C2.739 172.954 0.5 170.716 0.5 167.954C0.5 165.192 2.739 162.954 5.5 162.954C8.809 162.954 11.5 160.263 11.5 156.954C11.5 154.192 13.739 151.954 16.5 151.954C19.261 151.954 21.5 154.192 21.5 156.954C21.5 160.263 24.191 162.954 27.5 162.954C30.261 162.954 32.5 165.192 32.5 167.954C32.5 170.716 30.261 172.954 27.5 172.954C24.191 172.954 21.5 175.645 21.5 178.954C21.5 181.716 19.261 183.954 16.5 183.954Z" fill="#6583FE"/>
<path d="M389.5 186.719C388.22 186.719 386.941 186.231 385.964 185.254C384.011 183.302 384.011 180.136 385.964 178.184L395.964 168.184C397.917 166.231 401.082 166.231 403.035 168.184C404.988 170.136 404.988 173.302 403.035 175.254L393.035 185.254C392.059 186.23 390.78 186.719 389.5 186.719Z" fill="#FF7EB8"/>
<path d="M11.5 234.756C10.22 234.756 8.94099 234.268 7.96399 233.291C6.01099 231.339 6.01099 228.173 7.96399 226.221L17.964 216.221C19.917 214.268 23.082 214.268 25.035 216.221C26.988 218.173 26.988 221.339 25.035 223.291L15.035 233.291C14.059 234.268 12.78 234.756 11.5 234.756Z" fill="#FF7EB8"/>
<path d="M404.5 292.665C403.22 292.665 401.941 292.177 400.964 291.2C399.011 289.248 399.011 286.082 400.964 284.13L410.964 274.13C412.917 272.177 416.082 272.177 418.035 274.13C419.988 276.082 419.988 279.248 418.035 281.2L408.035 291.2C407.059 292.177 405.78 292.665 404.5 292.665Z" fill="#01ECA5"/>
<path d="M90.498 440.573H71.5444V457.105H93.3369V460H68.1211V419.477H93.1978V422.399H71.5444V437.679H90.498V440.573ZM122.449 448.645H104.052L99.8774 460H96.2871L111.623 419.477H114.879L130.214 460H126.652L122.449 448.645ZM105.11 445.722H121.364L113.237 423.651L105.11 445.722ZM159.132 450.036C159.132 447.791 158.343 446.019 156.766 444.72C155.189 443.403 152.304 442.16 148.11 440.991C143.917 439.803 140.855 438.514 138.926 437.122C136.18 435.155 134.807 432.576 134.807 429.385C134.807 426.286 136.078 423.772 138.62 421.842C141.18 419.894 144.446 418.92 148.417 418.92C151.107 418.92 153.51 419.439 155.625 420.479C157.759 421.518 159.41 422.965 160.579 424.82C161.748 426.676 162.333 428.745 162.333 431.027H158.881C158.881 428.262 157.935 426.045 156.042 424.375C154.15 422.687 151.608 421.842 148.417 421.842C145.318 421.842 142.85 422.538 141.013 423.93C139.176 425.303 138.258 427.103 138.258 429.329C138.258 431.389 139.083 433.068 140.735 434.367C142.386 435.666 145.03 436.816 148.667 437.818C152.304 438.801 155.059 439.831 156.933 440.907C158.807 441.965 160.217 443.236 161.164 444.72C162.11 446.205 162.583 447.958 162.583 449.98C162.583 453.172 161.303 455.732 158.742 457.662C156.2 459.592 152.842 460.557 148.667 460.557C145.81 460.557 143.184 460.046 140.791 459.026C138.416 458.005 136.606 456.577 135.363 454.74C134.139 452.903 133.526 450.797 133.526 448.422H136.95C136.95 451.279 138.017 453.534 140.15 455.185C142.284 456.836 145.123 457.662 148.667 457.662C151.821 457.662 154.354 456.966 156.265 455.575C158.176 454.183 159.132 452.337 159.132 450.036ZM181.871 441.575L194.256 419.477H198.208L183.568 444.748V460H180.145V444.748L165.533 419.477H169.597L181.871 441.575ZM226.458 442.828H210.148V460H203.106V419.477H228.851V425.154H210.148V437.206H226.458V442.828ZM266.786 440.796C266.786 444.767 266.1 448.255 264.727 451.261C263.354 454.248 261.387 456.549 258.826 458.163C256.284 459.759 253.353 460.557 250.031 460.557C246.747 460.557 243.815 459.759 241.236 458.163C238.676 456.549 236.69 454.257 235.28 451.289C233.889 448.32 233.184 444.896 233.165 441.019V438.736C233.165 434.784 233.861 431.296 235.252 428.271C236.663 425.247 238.639 422.937 241.181 421.341C243.741 419.727 246.673 418.92 249.976 418.92C253.278 418.92 256.201 419.718 258.743 421.313C261.303 422.891 263.279 425.173 264.671 428.16C266.062 431.129 266.768 434.589 266.786 438.542V440.796ZM259.745 438.681C259.745 434.19 258.891 430.749 257.184 428.355C255.496 425.961 253.093 424.765 249.976 424.765C246.933 424.765 244.548 425.961 242.823 428.355C241.116 430.73 240.244 434.098 240.207 438.458V440.796C240.207 445.249 241.069 448.691 242.795 451.122C244.539 453.552 246.951 454.768 250.031 454.768C253.148 454.768 255.542 453.58 257.212 451.205C258.9 448.83 259.745 445.36 259.745 440.796V438.681ZM280.841 454.378H299.238V460H273.8V419.477H280.841V454.378ZM312.069 460H305.055V419.477H312.069V460ZM353.065 440.796C353.065 444.767 352.379 448.255 351.006 451.261C349.633 454.248 347.666 456.549 345.105 458.163C342.563 459.759 339.632 460.557 336.311 460.557C333.026 460.557 330.095 459.759 327.516 458.163C324.955 456.549 322.97 454.257 321.56 451.289C320.168 448.32 319.463 444.896 319.444 441.019V438.736C319.444 434.784 320.14 431.296 321.532 428.271C322.942 425.247 324.918 422.937 327.46 421.341C330.021 419.727 332.952 418.92 336.255 418.92C339.558 418.92 342.48 419.718 345.022 421.313C347.583 422.891 349.559 425.173 350.95 428.16C352.342 431.129 353.047 434.589 353.065 438.542V440.796ZM346.024 438.681C346.024 434.19 345.17 430.749 343.463 428.355C341.775 425.961 339.372 424.765 336.255 424.765C333.212 424.765 330.828 425.961 329.102 428.355C327.395 430.73 326.523 434.098 326.486 438.458V440.796C326.486 445.249 327.349 448.691 329.074 451.122C330.818 453.552 333.23 454.768 336.311 454.768C339.428 454.768 341.821 453.58 343.491 451.205C345.18 448.83 346.024 445.36 346.024 440.796V438.681Z" fill="url(#paint1_linear)"/>
<defs>
<linearGradient id="paint0_linear" x1="10.9995" y1="198.5" x2="409" y2="198.5" gradientUnits="userSpaceOnUse">
<stop stop-color="#FFDBED" stop-opacity="0.5"/>
<stop offset="1" stop-color="#FFDBED"/>
</linearGradient>
<linearGradient id="paint1_linear" x1="63" y1="441.132" x2="356" y2="441.132" gradientUnits="userSpaceOnUse">
<stop stop-color="#4369FD"/>
<stop offset="1" stop-color="#FF7EB8"/>
</linearGradient>
</defs>
</svg>
